<?xml version="1.0" encoding="iso-8859-1"?>
<!-- Generator: Adobe Illustrator 19.0.0, SVG Export Plug-In . SVG Version: 6.00 Build 0)  -->
<svg version="1.1" id="Layer_1" xmlns="http://www.w3.org/2000/svg" xmlns:xlink="http://www.w3.org/1999/xlink" x="0px" y="0px"
	 viewBox="0 0 512 512" style="enable-background:new 0 0 512 512;" xml:space="preserve">
<path style="fill:#D2DAE9;" d="M505.877,204.751L327.23,324.703l-0.07,40.475l179.828,122.025C510.087,481.101,512,474.3,512,467
	V227C512,218.868,509.664,211.341,505.877,204.751z"/>
<path style="fill:#C7CEDD;" d="M184.358,325.079L5.151,206.542C1.968,212.709,0,219.595,0,227v240c0,7.3,1.913,14.101,5.012,20.204
	L184.56,365.431L184.358,325.079z"/>
<path style="fill:#E6EEFF;" d="M349.536,344.98l-187.502,0.39L5.012,487.204C12.987,502.911,28.679,512,45,512h422
	c16.321,0,32.013-9.089,39.988-24.796L349.536,344.98z"/>
<path style="fill:#DAE2F2;" d="M256,345.174V512h211c16.322,0,32.012-9.089,39.988-24.796L349.536,344.98L256,345.174z"/>
<path style="fill:#B999FF;" d="M506,204.8c-180.899,163.2-154,138-220.3,198c-8.699,7.2-19.2,11.1-29.7,11.1s-21-3.9-29.7-11.1
	c-162-144.601-30.399-26.401-221.201-196.2C13.2,191.3,28.5,182,45,182h422C482.3,182,497.601,190.099,506,204.8z"/>
<path style="fill:#A680FF;" d="M506,204.8c-180.899,163.2-154,138-220.3,198c-8.699,7.2-19.2,11.1-29.7,11.1V182h211
	C482.3,182,497.601,190.099,506,204.8z"/>
<path style="fill:#2EE6C7;" d="M256,270c-4.717,0-9.17-2.227-11.997-6.006l-90-120c-3.413-4.541-3.955-10.62-1.421-15.703
	C155.131,123.208,160.316,120,166,120h45V15c0-8.291,6.709-15,15-15h60c8.291,0,15,6.709,15,15v105h45
	c5.684,0,10.869,3.208,13.418,8.291c2.534,5.083,1.992,11.162-1.421,15.703l-90,120C265.17,267.773,260.717,270,256,270z"/>
<path style="fill:#29CCB1;" d="M346,120h-45V15c0-8.291-6.709-15-15-15h-30v270c4.717,0,9.17-2.227,11.997-6.006l90-120
	c3.413-4.541,3.955-10.62,1.421-15.703C356.869,123.208,351.684,120,346,120z"/>
<g>
</g>
<g>
</g>
<g>
</g>
<g>
</g>
<g>
</g>
<g>
</g>
<g>
</g>
<g>
</g>
<g>
</g>
<g>
</g>
<g>
</g>
<g>
</g>
<g>
</g>
<g>
</g>
<g>
</g>
</svg>
